<svg width="28" height="28" viewBox="0 0 28 28" fill="none" xmlns="http://www.w3.org/2000/svg">
<path d="M13.4749 22.6913L18.4333 12.1913H14.6416V5.19134L9.68325 15.6913H13.4749V22.6913ZM13.9999 25.6663C12.3471 25.6663 10.811 25.3698 9.39158 24.7768C7.97214 24.1837 6.73742 23.3622 5.68742 22.3122C4.63742 21.2622 3.81589 20.0275 3.22284 18.608C2.62978 17.1886 2.33325 15.6525 2.33325 13.9997C2.33325 12.3663 2.62978 10.84 3.22284 9.42051C3.81589 8.00106 4.63742 6.76634 5.68742 5.71634C6.73742 4.66634 7.97214 3.83995 9.39158 3.23717C10.811 2.6344 12.3471 2.33301 13.9999 2.33301C15.6333 2.33301 17.1596 2.6344 18.5791 3.23717C19.9985 3.83995 21.2333 4.66634 22.2833 5.71634C23.3333 6.76634 24.1596 8.00106 24.7624 9.42051C25.3652 10.84 25.6666 12.3663 25.6666 13.9997C25.6666 15.6525 25.3652 17.1886 24.7624 18.608C24.1596 20.0275 23.3333 21.2622 22.2833 22.3122C21.2333 23.3622 19.9985 24.1837 18.5791 24.7768C17.1596 25.3698 15.6333 25.6663 13.9999 25.6663ZM13.9999 23.9163C16.8194 23.9163 19.177 22.9684 21.0728 21.0726C22.9687 19.1768 23.9166 16.8191 23.9166 13.9997C23.9166 11.1802 22.9687 8.82259 21.0728 6.92676C19.177 5.03092 16.8194 4.08301 13.9999 4.08301C11.1805 4.08301 8.82283 5.03092 6.927 6.92676C5.03117 8.82259 4.08325 11.1802 4.08325 13.9997C4.08325 16.8191 5.03117 19.1768 6.927 21.0726C8.82283 22.9684 11.1805 23.9163 13.9999 23.9163Z" fill="white"/>
</svg>
