<svg width="28" height="28" viewBox="0 0 28 28" fill="none" xmlns="http://www.w3.org/2000/svg">
<path d="M21.2813 18.5156C21.2813 20.1094 20.763 21.4818 19.7266 22.6328C18.6901 23.7839 17.3438 24.4948 15.6875 24.7656V27.5C15.6875 27.6458 15.6406 27.7656 15.5469 27.8594C15.4531 27.9531 15.3333 28 15.1875 28H13.0781C12.9427 28 12.8255 27.9505 12.7266 27.8516C12.6276 27.7526 12.5781 27.6354 12.5781 27.5V24.7656C11.8906 24.6719 11.2266 24.5104 10.5859 24.2812C9.94531 24.0521 9.41667 23.8203 9 23.5859C8.58333 23.3516 8.19792 23.1016 7.84375 22.8359C7.48958 22.5703 7.2474 22.375 7.11719 22.25C6.98698 22.125 6.89583 22.0312 6.84375 21.9688C6.66667 21.75 6.65625 21.5365 6.8125 21.3281L8.42188 19.2188C8.49479 19.1146 8.61458 19.0521 8.78125 19.0312C8.9375 19.0104 9.0625 19.0573 9.15625 19.1719L9.1875 19.2031C10.3646 20.2344 11.6302 20.8854 12.9844 21.1562C13.3698 21.2396 13.7552 21.2812 14.1406 21.2812C14.9844 21.2812 15.7266 21.0573 16.3672 20.6094C17.0078 20.1615 17.3281 19.526 17.3281 18.7031C17.3281 18.4115 17.25 18.1354 17.0938 17.875C16.9375 17.6146 16.763 17.3958 16.5703 17.2188C16.3776 17.0417 16.0729 16.8464 15.6563 16.6328C15.2396 16.4193 14.8958 16.2526 14.625 16.1328C14.3542 16.013 13.9375 15.8438 13.375 15.625C12.9688 15.4583 12.6484 15.3281 12.4141 15.2344C12.1797 15.1406 11.8594 15.0026 11.4531 14.8203C11.0469 14.638 10.7214 14.4766 10.4766 14.3359C10.2318 14.1953 9.9375 14.0104 9.59375 13.7812C9.25 13.5521 8.97135 13.3307 8.75781 13.1172C8.54427 12.9036 8.31771 12.6484 8.07813 12.3516C7.83854 12.0547 7.65365 11.7526 7.52344 11.4453C7.39323 11.138 7.28385 10.7917 7.19531 10.4062C7.10677 10.0208 7.0625 9.61458 7.0625 9.1875C7.0625 7.75 7.57292 6.48958 8.59375 5.40625C9.61458 4.32292 10.9427 3.625 12.5781 3.3125V0.5C12.5781 0.364583 12.6276 0.247396 12.7266 0.148438C12.8255 0.0494792 12.9427 0 13.0781 0H15.1875C15.3333 0 15.4531 0.046875 15.5469 0.140625C15.6406 0.234375 15.6875 0.354167 15.6875 0.5V3.25C16.2813 3.3125 16.8568 3.43229 17.4141 3.60938C17.9714 3.78646 18.4245 3.96094 18.7734 4.13281C19.1224 4.30469 19.4531 4.5 19.7656 4.71875C20.0781 4.9375 20.2813 5.08854 20.375 5.17188C20.4688 5.25521 20.5469 5.32812 20.6094 5.39062C20.7865 5.57812 20.8125 5.77604 20.6875 5.98438L19.4219 8.26562C19.3385 8.42188 19.2188 8.50521 19.0625 8.51562C18.9167 8.54688 18.776 8.51042 18.6406 8.40625C18.6094 8.375 18.5339 8.3125 18.4141 8.21875C18.2943 8.125 18.0911 7.98698 17.8047 7.80469C17.5182 7.6224 17.2135 7.45573 16.8906 7.30469C16.5677 7.15365 16.1797 7.01823 15.7266 6.89844C15.2734 6.77865 14.8281 6.71875 14.3906 6.71875C13.401 6.71875 12.5938 6.94271 11.9688 7.39062C11.3438 7.83854 11.0313 8.41667 11.0313 9.125C11.0313 9.39583 11.0755 9.64583 11.1641 9.875C11.2526 10.1042 11.4063 10.3203 11.625 10.5234C11.8438 10.7266 12.0495 10.8984 12.2422 11.0391C12.4349 11.1797 12.7266 11.3411 13.1172 11.5234C13.5078 11.7057 13.8229 11.8464 14.0625 11.9453C14.3021 12.0443 14.6667 12.1875 15.1563 12.375C15.7083 12.5833 16.1302 12.7474 16.4219 12.8672C16.7135 12.987 17.1094 13.1693 17.6094 13.4141C18.1094 13.6589 18.5026 13.8802 18.7891 14.0781C19.0755 14.276 19.3984 14.5365 19.7578 14.8594C20.1172 15.1823 20.3932 15.513 20.5859 15.8516C20.7786 16.1901 20.9427 16.5885 21.0781 17.0469C21.2135 17.5052 21.2813 17.9948 21.2813 18.5156Z" fill="white"/>
</svg>
