<svg width="32" height="32" viewBox="0 0 32 32" fill="none" xmlns="http://www.w3.org/2000/svg">
<path d="M21.3334 13.3333C21.3334 14.7478 20.7715 16.1044 19.7713 17.1046C18.7711 18.1048 17.4146 18.6667 16.0001 18.6667C14.5856 18.6667 13.229 18.1048 12.2288 17.1046C11.2287 16.1044 10.6667 14.7478 10.6667 13.3333C10.6667 11.9188 11.2287 10.5623 12.2288 9.5621C13.229 8.5619 14.5856 8 16.0001 8C17.4146 8 18.7711 8.5619 19.7713 9.5621C20.7715 10.5623 21.3334 11.9188 21.3334 13.3333Z" fill="white"/>
<path fill-rule="evenodd" clip-rule="evenodd" d="M15.4561 29.323C8.34475 29.0377 2.66675 23.1817 2.66675 16.0003C2.66675 8.63633 8.63608 2.66699 16.0001 2.66699C23.3641 2.66699 29.3334 8.63633 29.3334 16.0003C29.3334 23.3643 23.3641 29.3337 16.0001 29.3337C15.9392 29.3341 15.8783 29.3341 15.8174 29.3337C15.6967 29.3337 15.5761 29.3297 15.4561 29.323ZM7.44408 24.4137C7.34439 24.1274 7.31046 23.8223 7.3448 23.5211C7.37915 23.2199 7.48088 22.9303 7.64247 22.6738C7.80405 22.4173 8.02132 22.2005 8.27816 22.0395C8.535 21.8785 8.82481 21.7774 9.12608 21.7437C14.3234 21.1683 17.7087 21.2203 22.8807 21.7557C23.1824 21.7871 23.4729 21.8869 23.7302 22.0476C23.9874 22.2082 24.2046 22.4255 24.3652 22.6828C24.5258 22.9401 24.6256 23.2306 24.6569 23.5323C24.6883 23.834 24.6504 24.1388 24.5461 24.4237C26.7627 22.1809 28.004 19.1536 28.0001 16.0003C28.0001 9.37299 22.6274 4.00033 16.0001 4.00033C9.37275 4.00033 4.00008 9.37299 4.00008 16.0003C4.00008 19.2777 5.31408 22.2483 7.44408 24.4137Z" fill="white"/>
</svg>
