<svg width="20" height="20" viewBox="0 0 20 20" fill="none" xmlns="http://www.w3.org/2000/svg">
<path d="M18.3333 10.0003C18.3333 5.39795 14.6023 1.66699 9.99996 1.66699C5.39759 1.66699 1.66663 5.39795 1.66663 10.0003C1.66663 14.6027 5.39759 18.3337 9.99996 18.3337C14.6023 18.3337 18.3333 14.6027 18.3333 10.0003Z" stroke="white" stroke-width="1.5"/>
<path d="M7.91663 7.2657C8.02901 6.96937 8.19882 6.70376 8.41156 6.48414C8.80115 6.08196 9.33472 5.83398 9.92327 5.83398C11.1162 5.83398 12.0833 6.85278 12.0833 8.10953C12.0833 9.18674 11.3728 10.0891 10.4185 10.325C10.1505 10.3912 9.92327 10.6089 9.92327 10.8851V11.6673" stroke="white" stroke-width="1.5" stroke-linecap="round"/>
<path d="M9.99996 15.2086C10.4602 15.2086 10.8333 14.8356 10.8333 14.3753C10.8333 13.9151 10.4602 13.542 9.99996 13.542C9.53972 13.542 9.16663 13.9151 9.16663 14.3753C9.16663 14.8356 9.53972 15.2086 9.99996 15.2086Z" fill="white"/>
</svg>
