<svg width="20" height="20" viewBox="0 0 20 20" fill="none" xmlns="http://www.w3.org/2000/svg">
<path opacity="0.4" d="M7.5 6.00033V13.992C7.5 16.667 9.16667 18.3337 11.8333 18.3337H13.9917C16.6583 18.3337 18.325 16.667 18.325 14.0003V6.00033C18.3333 3.33366 16.6667 1.66699 14 1.66699H11.8333C9.16667 1.66699 7.5 3.33366 7.5 6.00033Z" fill="white"/>
<path d="M10.3583 6.7666L13.15 9.55827C13.3916 9.79994 13.3916 10.1999 13.15 10.4416L10.3583 13.2333C10.1166 13.4749 9.71663 13.4749 9.47496 13.2333C9.23329 12.9916 9.23329 12.5916 9.47496 12.3499L11.2 10.6249H2.29163C1.94996 10.6249 1.66663 10.3416 1.66663 9.99993C1.66663 9.65827 1.94996 9.37493 2.29163 9.37493H11.2L9.47496 7.64994C9.34996 7.52494 9.29163 7.3666 9.29163 7.20827C9.29163 7.04993 9.34996 6.8916 9.47496 6.7666C9.71663 6.5166 10.1083 6.5166 10.3583 6.7666Z" fill="white"/>
</svg>
