<svg width="17" height="17" viewBox="0 0 17 17" fill="none" xmlns="http://www.w3.org/2000/svg">
<path opacity="0.4" d="M12.9862 1.84668C12.6529 1.84668 12.3862 2.11335 12.3862 2.44668V5.54668C12.3862 5.88001 12.6529 6.14668 12.9862 6.14668C13.3196 6.14668 13.5862 5.88001 13.5862 5.54668V2.44668C13.5862 2.11335 13.3196 1.84668 12.9862 1.84668Z" fill="white" fill-opacity="0.7"/>
<path d="M8.64614 11.1465C8.31281 11.1465 8.04614 11.4132 8.04614 11.7465V14.8465C8.04614 15.1798 8.31281 15.4465 8.64614 15.4465C8.97948 15.4465 9.24614 15.1798 9.24614 14.8465V11.7465C9.24614 11.4198 8.97948 11.1465 8.64614 11.1465Z" fill="white" fill-opacity="0.7"/>
<path opacity="0.4" d="M4.3063 1.84668C3.97297 1.84668 3.7063 2.11335 3.7063 2.44668V5.54668C3.7063 5.88001 3.97297 6.14668 4.3063 6.14668C4.63963 6.14668 4.9063 5.88001 4.9063 5.54668V2.44668C4.9063 2.11335 4.63297 1.84668 4.3063 1.84668Z" fill="white" fill-opacity="0.7"/>
<path opacity="0.4" d="M5.54631 7.42676H3.06631C2.73298 7.42676 2.46631 7.69342 2.46631 8.02676C2.46631 8.36009 2.73298 8.62676 3.06631 8.62676H3.70631V14.8468C3.70631 15.1801 3.97298 15.4468 4.30631 15.4468C4.63964 15.4468 4.90631 15.1801 4.90631 14.8468V8.62676H5.54631C5.87964 8.62676 6.14631 8.36009 6.14631 8.02676C6.14631 7.69342 5.87297 7.42676 5.54631 7.42676Z" fill="white" fill-opacity="0.7"/>
<path opacity="0.4" d="M14.2262 7.42676H11.7462C11.4129 7.42676 11.1462 7.69342 11.1462 8.02676C11.1462 8.36009 11.4129 8.62676 11.7462 8.62676H12.3862V14.8468C12.3862 15.1801 12.6529 15.4468 12.9862 15.4468C13.3196 15.4468 13.5862 15.1801 13.5862 14.8468V8.62676H14.2262C14.5596 8.62676 14.8262 8.36009 14.8262 8.02676C14.8262 7.69342 14.5596 7.42676 14.2262 7.42676Z" fill="white" fill-opacity="0.7"/>
<path d="M9.88615 8.66668H9.24615V2.44668C9.24615 2.11335 8.97949 1.84668 8.64615 1.84668C8.31282 1.84668 8.04615 2.11335 8.04615 2.44668V8.66668H7.40615C7.07282 8.66668 6.80615 8.93335 6.80615 9.26668C6.80615 9.60001 7.07282 9.86668 7.40615 9.86668H9.88615C10.2195 9.86668 10.4862 9.60001 10.4862 9.26668C10.4862 8.93335 10.2195 8.66668 9.88615 8.66668Z" fill="white" fill-opacity="0.7"/>
</svg>
