<svg width="20" height="20" viewBox="0 0 20 20" fill="none" xmlns="http://www.w3.org/2000/svg">
<g clip-path="url(#clip0_61_18799)">
<path d="M18.3334 9.16699H14.8584L17.5584 6.46699L16.3834 5.28366L12.5001 9.16699H10.8334V7.50032L14.7167 3.61699L13.5334 2.44199L10.8334 5.14199V1.66699H9.16675V5.14199L6.46675 2.44199L5.28341 3.61699L9.16675 7.50032V9.16699H7.50008L3.61675 5.28366L2.44175 6.46699L5.14175 9.16699H1.66675V10.8337H5.14175L2.44175 13.5337L3.61675 14.717L7.50008 10.8337H9.16675V12.5003L5.28341 16.3837L6.46675 17.5587L9.16675 14.8587V18.3337H10.8334V14.8587L13.5334 17.5587L14.7167 16.3837L10.8334 12.5003V10.8337H12.5001L16.3834 14.717L17.5584 13.5337L14.8584 10.8337H18.3334V9.16699Z" fill="white"/>
</g>
<defs>
<clipPath id="clip0_61_18799">
<rect width="20" height="20" fill="white"/>
</clipPath>
</defs>
</svg>
