<svg width="26" height="26" viewBox="0 0 26 26" fill="none" xmlns="http://www.w3.org/2000/svg">
<path fill-rule="evenodd" clip-rule="evenodd" d="M18.9255 18.9255C19.2428 18.6082 19.7572 18.6082 20.0745 18.9255L23.3245 22.1755C23.6418 22.4928 23.6418 23.0072 23.3245 23.3245C23.0072 23.6418 22.4928 23.6418 22.1755 23.3245L18.9255 20.0745C18.6082 19.7572 18.6082 19.2428 18.9255 18.9255Z" fill="white"/>
<path fill-rule="evenodd" clip-rule="evenodd" d="M12.4583 4.0625C7.82144 4.0625 4.0625 7.82144 4.0625 12.4583C4.0625 17.0952 7.82144 20.8542 12.4583 20.8542C17.0952 20.8542 20.8542 17.0952 20.8542 12.4583C20.8542 7.82144 17.0952 4.0625 12.4583 4.0625ZM2.4375 12.4583C2.4375 6.92398 6.92398 2.4375 12.4583 2.4375C17.9927 2.4375 22.4792 6.92398 22.4792 12.4583C22.4792 17.9927 17.9927 22.4792 12.4583 22.4792C6.92398 22.4792 2.4375 17.9927 2.4375 12.4583Z" fill="white"/>
</svg>
