<svg width="24" height="24" viewBox="0 0 24 24" fill="none" xmlns="http://www.w3.org/2000/svg">
<g clip-path="url(#clip0_61_18477)">
<path d="M7 14.75H13V16.25H7V14.75ZM7 11H16V12.5H7V11ZM7 18.5H10.75V20H7V18.5Z" fill="white"/>
<path d="M18.75 5.25H16.5V4.5C16.5 4.10218 16.342 3.72064 16.0607 3.43934C15.7794 3.15804 15.3978 3 15 3H9C8.60218 3 8.22064 3.15804 7.93934 3.43934C7.65804 3.72064 7.5 4.10218 7.5 4.5V5.25H5.25C4.85218 5.25 4.47064 5.40804 4.18934 5.68934C3.90804 5.97064 3.75 6.35218 3.75 6.75V22.5C3.75 22.8978 3.90804 23.2794 4.18934 23.5607C4.47064 23.842 4.85218 24 5.25 24H18.75C19.1478 24 19.5294 23.842 19.8107 23.5607C20.092 23.2794 20.25 22.8978 20.25 22.5V6.75C20.25 6.35218 20.092 5.97064 19.8107 5.68934C19.5294 5.40804 19.1478 5.25 18.75 5.25ZM9 4.5H15V7.5H9V4.5ZM18.75 22.5H5.25V6.75H7.5V9H16.5V6.75H18.75V22.5Z" fill="white"/>
</g>
<defs>
<clipPath id="clip0_61_18477">
<rect width="24" height="24" fill="white"/>
</clipPath>
</defs>
</svg>
