<svg width="24" height="24" viewBox="0 0 24 24" fill="none" xmlns="http://www.w3.org/2000/svg">
<g clip-path="url(#clip0_61_18463)">
<path fill-rule="evenodd" clip-rule="evenodd" d="M11.438 4C10.816 4 10.312 4.504 10.312 5.125L10.177 6.07C10.1493 6.26331 10.0718 6.44608 9.95205 6.60034C9.83231 6.75461 9.67447 6.87504 9.49407 6.94981C9.31367 7.02457 9.11691 7.05109 8.92315 7.02675C8.72939 7.00241 8.54531 6.92806 8.389 6.811L7.625 6.238C7.52053 6.13353 7.39651 6.05066 7.26002 5.99413C7.12353 5.93759 6.97724 5.90849 6.8295 5.90849C6.68176 5.90849 6.53547 5.93759 6.39898 5.99413C6.26249 6.05066 6.13847 6.13353 6.034 6.238L5.238 7.034C4.798 7.474 4.798 8.185 5.238 8.624L5.811 9.389C5.92804 9.54524 6.00241 9.72925 6.0268 9.92294C6.05119 10.1166 6.02476 10.3133 5.95011 10.4937C5.87546 10.6741 5.75515 10.8319 5.60101 10.9517C5.44688 11.0715 5.26422 11.1492 5.071 11.177L4.125 11.313C3.504 11.313 3 11.816 3 12.437V13.563C3 14.183 3.504 14.687 4.125 14.687L5.07 14.823C5.26331 14.8507 5.44608 14.9282 5.60034 15.0479C5.75461 15.1677 5.87504 15.3255 5.94981 15.5059C6.02457 15.6863 6.05109 15.8831 6.02675 16.0768C6.00241 16.2706 5.92806 16.4547 5.811 16.611L5.238 17.375C4.798 17.815 4.798 18.527 5.238 18.966L6.034 19.762C6.474 20.202 7.185 20.202 7.624 19.762L8.389 19.189C8.54524 19.072 8.72925 18.9976 8.92294 18.9732C9.11662 18.9488 9.31333 18.9752 9.4937 19.0499C9.67408 19.1245 9.83193 19.2449 9.95174 19.399C10.0715 19.5531 10.1492 19.7358 10.177 19.929L10.313 20.875C10.313 21.496 10.816 22 11.437 22H12.563C13.183 22 13.687 21.496 13.687 20.875L13.823 19.93C13.8507 19.7367 13.9282 19.5539 14.0479 19.3997C14.1677 19.2454 14.3255 19.125 14.5059 19.0502C14.6863 18.9754 14.8831 18.9489 15.0768 18.9732C15.2706 18.9976 15.4547 19.0719 15.611 19.189L16.375 19.762C16.815 20.202 17.527 20.202 17.966 19.762L18.762 18.966C19.201 18.526 19.201 17.815 18.762 17.376L18.189 16.611C18.072 16.4548 17.9976 16.2708 17.9732 16.0771C17.9488 15.8834 17.9752 15.6867 18.0499 15.5063C18.1245 15.3259 18.2449 15.1681 18.399 15.0483C18.5531 14.9285 18.7358 14.8508 18.929 14.823L19.875 14.687C20.496 14.687 21 14.184 21 13.563V12.437C21 11.817 20.496 11.313 19.875 11.313L18.93 11.177C18.7367 11.1493 18.5539 11.0718 18.3997 10.9521C18.2454 10.8323 18.125 10.6745 18.0502 10.4941C17.9754 10.3137 17.9489 10.1169 17.9732 9.92315C17.9976 9.72939 18.0719 9.54531 18.189 9.389L18.762 8.625C19.201 8.185 19.201 7.473 18.762 7.034L17.966 6.238C17.7551 6.02732 17.4691 5.90899 17.171 5.90899C16.8729 5.90899 16.5869 6.02732 16.376 6.238L15.611 6.811C15.4548 6.92804 15.2708 7.00241 15.0771 7.0268C14.8834 7.05119 14.6867 7.02476 14.5063 6.95011C14.3259 6.87546 14.1681 6.75515 14.0483 6.60101C13.9285 6.44688 13.8508 6.26422 13.823 6.071L13.687 5.125C13.687 4.504 13.184 4 12.563 4H11.438ZM12 15.25C12.5967 15.25 13.169 15.0129 13.591 14.591C14.0129 14.169 14.25 13.5967 14.25 13C14.25 12.4033 14.0129 11.831 13.591 11.409C13.169 10.9871 12.5967 10.75 12 10.75C11.4033 10.75 10.831 10.9871 10.409 11.409C9.98705 11.831 9.75 12.4033 9.75 13C9.75 13.5967 9.98705 14.169 10.409 14.591C10.831 15.0129 11.4033 15.25 12 15.25Z" fill="white"/>
</g>
<defs>
<clipPath id="clip0_61_18463">
<rect width="24" height="24" fill="white"/>
</clipPath>
</defs>
</svg>
