<svg width="24" height="24" viewBox="0 0 24 24" fill="none" xmlns="http://www.w3.org/2000/svg">
<g clip-path="url(#clip0_61_18447)">
<g clip-path="url(#clip1_61_18447)">
<path d="M12 3C11.2 3 10.5 3.7 10.5 4.5V5.2C7.3 5.9 5 8.6 5 12V16.5L3 18.8V20H21V18.8L19 16.5V12C19 8.6 16.7 5.9 13.5 5.2V4.5C13.5 3.7 12.8 3 12 3ZM10 21C10 22.1 10.9 23 12 23C13.1 23 14 22.1 14 21H10Z" fill="white"/>
</g>
</g>
<defs>
<clipPath id="clip0_61_18447">
<rect width="24" height="24" fill="white"/>
</clipPath>
<clipPath id="clip1_61_18447">
<rect width="24" height="24" fill="white" transform="translate(0 1)"/>
</clipPath>
</defs>
</svg>
