<svg width="29" height="28" viewBox="0 0 29 28" fill="none" xmlns="http://www.w3.org/2000/svg">
<path d="M22.4626 10.383L21.1792 7.64134L18.4376 6.35801L21.1792 5.07467L22.4626 2.33301L23.7459 5.07467L26.4876 6.35801L23.7459 7.64134L22.4626 10.383ZM24.9126 18.8122L24.0446 16.9677L22.2001 16.0997L24.0446 15.2317L24.9126 13.3872L25.7806 15.2317L27.6251 16.0997L25.7806 16.9677L24.9126 18.8122ZM9.6584 25.6663L9.36673 22.983C9.09451 22.9441 8.81257 22.8566 8.5209 22.7205C8.22923 22.5844 7.97645 22.4191 7.76257 22.2247L5.48757 23.1872L2.9209 18.9872L5.13757 17.5288C5.04034 17.1983 4.99173 16.9066 4.99173 16.6538C4.99173 16.4011 5.04034 16.1094 5.13757 15.7788L2.9209 14.3205L5.48757 10.1205L7.76257 11.083C7.97645 10.8886 8.22923 10.7233 8.5209 10.5872C8.81257 10.4511 9.09451 10.3636 9.36673 10.3247L9.66059 7.64134H14.5584L14.8501 10.3247C15.1223 10.3636 15.4042 10.4511 15.6959 10.5872C15.9876 10.7233 16.2403 10.8886 16.4542 11.083L18.7292 10.1205L21.2959 14.3205L19.0792 15.7788C19.1765 16.1094 19.2251 16.4011 19.2251 16.6538C19.2251 16.9066 19.1765 17.1983 19.0792 17.5288L21.2959 18.9872L18.7292 23.1872L16.4542 22.2247C16.2403 22.4191 15.9876 22.5844 15.6959 22.7205C15.4042 22.8566 15.1223 22.9441 14.8501 22.983L14.5562 25.6663H9.6584ZM12.1084 20.008C13.0806 20.008 13.8827 19.692 14.5146 19.0601C15.1466 18.4281 15.4626 17.6261 15.4626 16.6538C15.4626 15.6816 15.1466 14.8795 14.5146 14.2476C13.8827 13.6156 13.0806 13.2997 12.1084 13.2997C11.1362 13.2997 10.3341 13.6156 9.70215 14.2476C9.0702 14.8795 8.75423 15.6816 8.75423 16.6538C8.75423 17.6261 9.0702 18.4281 9.70215 19.0601C10.3341 19.692 11.1362 20.008 12.1084 20.008ZM12.1084 18.258C11.6417 18.258 11.2577 18.1073 10.9563 17.8059C10.6549 17.5045 10.5042 17.1205 10.5042 16.6538C10.5042 16.1872 10.6549 15.8031 10.9563 15.5018C11.2577 15.2004 11.6417 15.0497 12.1084 15.0497C12.5751 15.0497 12.9591 15.2004 13.2605 15.5018C13.5619 15.8031 13.7126 16.1872 13.7126 16.6538C13.7126 17.1205 13.5619 17.5045 13.2605 17.8059C12.9591 18.1073 12.5751 18.258 12.1084 18.258ZM11.1167 23.9163H13.1001L13.3334 21.6997C13.8973 21.5636 14.4126 21.3691 14.8792 21.1163C15.3459 20.8636 15.7714 20.533 16.1558 20.1247L18.0584 20.9705L19.0209 19.4538L17.2126 18.1705C17.4265 17.6844 17.5334 17.1788 17.5334 16.6538C17.5334 16.1288 17.4265 15.6233 17.2126 15.1372L19.0209 13.8538L18.0584 12.3372L16.1558 13.183C15.7714 12.7747 15.3459 12.4441 14.8792 12.1913C14.4126 11.9386 13.8973 11.7441 13.3334 11.608L13.1001 9.39134H11.1167L10.8834 11.608C10.3195 11.7441 9.80423 11.9386 9.33757 12.1913C8.8709 12.4441 8.44539 12.7747 8.06103 13.183L6.1584 12.3372L5.1959 13.8538L7.00423 15.1372C6.79034 15.6233 6.6834 16.1288 6.6834 16.6538C6.6834 17.1788 6.79034 17.6844 7.00423 18.1705L5.1959 19.4538L6.1584 20.9705L8.06103 20.1247C8.44539 20.533 8.8709 20.8636 9.33757 21.1163C9.80423 21.3691 10.3195 21.5636 10.8834 21.6997L11.1167 23.9163Z" fill="white"/>
</svg>
